Genre:Action | Adventure | Sci-Fi | Thriller
Language:English
IMDb:http://www.imdb.com/title/tt1424381/
Source:DVD9/IMAGINE


General
Complete name :Predators.2010.R5.LiNE.H264.Feel-Free
Format : MPEG-4
Format profile : Base Media
Codec ID : isom
File size : 1.21 GiB
Duration : 1h 42mn
Overall bit rate : 1 695 Kbps
Video #1
ID : 1
Format : AVC
Format/Info : Advanced Video Codec
Format profile : Baseline@L5.1
Format settings, CABAC : No
Format settings, ReFrames : 1 frame
Codec ID : avc1
Codec ID/Info : Advanced Video Coding
Duration : 1h 42mn
Bit rate mode : Variable
Bit rate : 1 525 Kbps
Width : 688 pixels
Height : 288 pixels
Display aspect ratio : 2.35:1
Frame rate mode : Constant
Frame rate : 25.000 fps
Resolution : 24 bits
Colorimetry : 4:2:0
Scan type : Progressive
Bits/(Pixel*Frame) : 0.308
Stream size : 1.09 GiB (90%)
Audio #2
ID : 2
Format : AAC
Format/Info : Advanced Audio Codec
Format version : Version 4
Format profile : LC
Format settings, SBR : No
Codec ID : 40
Duration : 1h 42mn
Bit rate mode : Variable
Bit rate : 165 Kbps
Channel(s) : 2 channels
Channel positions : L R
Sampling rate : 48.0 KHz
Resolution : 16 bits
Stream size : 121 MiB (10%)

Plot
A group of elite warriors are hunted by members of a merciless alien race known as Predators










================================== 
http://thepiratebay.org/user/hiest
==================================












Screenshots:
 
http://www.starshare.ro/bitbucket/Predators.2010.R5.LiNE.H264.Feel-Free.mp4_snapshot_00.03.10_%5B2010.09.24_08.20.36%5D.jpg
 
http://www.starshare.ro/bitbucket/Predators.2010.R5.LiNE.H264.Feel-Free.mp4_snapshot_00.07.07_%5B2010.09.24_08.20.10%5D.jpg
 
http://www.starshare.ro/bitbucket/Predators.2010.R5.LiNE.H264.Feel-Free.mp4_snapshot_00.11.39_%5B2010.09.24_08.20.33%5D.jpg
 
http://www.starshare.ro/bitbucket/Predators.2010.R5.LiNE.H264.Feel-Free.mp4_snapshot_00.21.30_%5B2010.09.24_08.20.14%5D.jpg